<svg xmlns="http://www.w3.org/2000/svg" data-name="Line stroke Cut Ex" viewBox="0 0 512 640" x="0px" y="0px"><title>creative- thinking- idea- brain- storming- head</title><g><path d="M434.089,265.187l15.822-2.374-7.78-51.867a87.532,87.532,0,0,0-11.244-31.7l-13.774,8.141a71.609,71.609,0,0,1,9.2,25.932Z"/><path d="M489.51,341.316,455.579,300.6l-3.267-21.786-15.823,2.374,3.6,24a8.008,8.008,0,0,0,1.765,3.935l35.365,42.437A12.026,12.026,0,0,1,480,359.241V364a12.013,12.013,0,0,1-12,12H443.2a8,8,0,0,0-7.663,5.7l-12.786,42.62A21.863,21.863,0,0,1,401.68,440H352.686a12.052,12.052,0,0,1-11.539-8.7L332.492,401l-15.385,4.4,8.656,30.295A28.122,28.122,0,0,0,352.686,456H360v24H152V456h7.314a28.122,28.122,0,0,0,26.923-20.308l8.656-30.294L179.508,401,170.853,431.3a12.052,12.052,0,0,1-11.539,8.7H110.32a21.865,21.865,0,0,1-21.072-15.679l-.786-2.62-15.324,4.6.785,2.62A37.765,37.765,0,0,0,110.32,456H136v32a8,8,0,0,0,8,8H368a8,8,0,0,0,8-8V456h25.68a37.765,37.765,0,0,0,36.4-27.081L449.152,392H468a28.032,28.032,0,0,0,28-28v-4.759A28.053,28.053,0,0,0,489.51,341.316Z"/><path d="M76.462,381.7A8,8,0,0,0,68.8,376H44a12.013,12.013,0,0,1-12-12v-4.759a12.026,12.026,0,0,1,2.781-7.682l35.365-42.437a8.008,8.008,0,0,0,1.765-3.935l13.78-91.867A71.658,71.658,0,0,1,94.527,188l-13.853-8a87.554,87.554,0,0,0-10.805,30.948L56.421,300.6,22.49,341.316A28.053,28.053,0,0,0,16,359.241V364a28.032,28.032,0,0,0,28,28H62.848l5.49,18.3,15.325-4.6Z"/><path d="M128,272a32.037,32.037,0,1,0,23.746,10.572l19.02-20.921A72.08,72.08,0,0,0,224,270.2v64.5L208.41,381.47a8.005,8.005,0,0,0,.934,6.968l32,48A8,8,0,0,0,248,440h16a8,8,0,0,0,6.656-3.562l32-48a8.005,8.005,0,0,0,.934-6.968L288,334.7V270.2a72.08,72.08,0,0,0,53.234-8.546l19.02,20.921a31.9,31.9,0,1,0,13.532-8.9l-19.82-21.8a71.7,71.7,0,0,0,21.5-43.09,72.034,72.034,0,0,0,0-129.558A72.005,72.005,0,0,0,256,34.336a72.031,72.031,0,0,0-84.006-8.7l8.012,13.85a56.03,56.03,0,0,1,70,11.474,8,8,0,0,0,12,0,56,56,0,0,1,97.925,34.072,8,8,0,0,0,5,7,56.027,56.027,0,0,1,0,103.926,8,8,0,0,0-5,7A55.749,55.749,0,0,1,343.2,240.022l-41.275-45.4-11.84,10.762L330.2,249.514A56.059,56.059,0,0,1,262,237.039a8,8,0,0,0-12,0,56.059,56.059,0,0,1-68.2,12.475l40.121-44.133-11.84-10.762-41.275,45.4a55.749,55.749,0,0,1-16.728-37.055,8,8,0,0,0-5-7,56.027,56.027,0,0,1,0-103.926,8,8,0,0,0,5-7A56.106,56.106,0,0,1,166,50.961L154,40.374a72.229,72.229,0,0,0-17.467,38.844,72.034,72.034,0,0,0-.006,129.561,71.7,71.7,0,0,0,21.5,43.09l-19.82,21.8A31.886,31.886,0,0,0,128,272Zm272,32a16,16,0,1,1-16-16A16.019,16.019,0,0,1,400,304ZM264,417.578V384H248v33.578l-23.173-34.76L237.766,344h36.468l12.939,38.818Zm-8-163.914a72.048,72.048,0,0,0,16,10.828V328H240V264.492A72.048,72.048,0,0,0,256,253.664ZM128,320a16,16,0,1,1,16-16A16.019,16.019,0,0,1,128,320Z"/><path d="M256,72a55.977,55.977,0,0,0-37.141,97.878L232.41,210.53A8,8,0,0,0,240,216h32a8,8,0,0,0,7.59-5.47l13.333-40-.382-.128A55.977,55.977,0,0,0,256,72Zm10.234,128H245.766l-6.148-18.444a56.126,56.126,0,0,0,32.764,0ZM256,168a40,40,0,1,1,40-40A40.045,40.045,0,0,1,256,168Z"/><rect x="192" y="52.686" width="16" height="22.627" transform="translate(13.324 160.167) rotate(-45)"/><rect x="172.686" y="168" width="22.627" height="16" transform="translate(-70.558 181.668) rotate(-45.002)"/><rect x="160" y="112" width="24" height="16"/><rect x="300.686" y="56" width="22.627" height="16" transform="translate(46.135 239.374) rotate(-45.002)"/><rect x="320" y="164.686" width="16" height="22.627" transform="translate(-28.382 283.48) rotate(-45)"/><rect x="328" y="112" width="24" height="16"/><rect x="248" y="352" width="16" height="16"/></g><text x="0" y="527" fill="#000000" font-size="5px" font-weight="bold" font-family="'Helvetica Neue', Helvetica, Arial-Unicode, Arial, Sans-serif">Created by LINECTOR </text><text x="0" y="532" fill="#000000" font-size="5px" font-weight="bold" font-family="'Helvetica Neue', Helvetica, Arial-Unicode, Arial, Sans-serif">from the Noun Project</text></svg>